:SAMPLES-PER-SECOND 30
:FULLY-SPECIFIED
:DEGREES
100
root  74.9559 38.0989 -0.699647 -139.937 -80.8179 135.645
RightUpLeg  -7.004 4.50634 -9.62539
RightLeg  59.0489 5.69131 9.72445
RightFoot  -1.11511 -1.42275 15.7315
RightToes  -1.16417e-010 0 -3.6325e-017
Spine  -1.71765 1.71899 -5.87185
Spine1  17.5233 3.13562 -6.89477
HEad  -21.5612 3.68124 -5.64479
LeftShoulder1  -0.317142 4.46722 -26.7744
LeftArm  -2.17286 0.089067 -48.7491
LeftForeArm  36.4336 -11.0075 -8.01942
LeftHand  -0.172383 9.8538 -2.94153
RightShoulder  -1.08569 -6.56007 29.0017
RightArm  20.174 -0.482357 51.7608
RightForeArm  19.3808 11.4994 7.85306
RightHand  -0.017156 4.44681 -0.475695
LeftUpLeg  -7.90441 4.50899 -10.4068
LeftLeg  18.9664 15.1762 3.04934
LeftFoot  -8.36246 -0.145187 7.51735
LeftToes  3.13772e-010 -3.14513e-011 3.96022e-013
101
root  74.1966 38.1647 -0.608677 -135.821 -82.4884 131.352
RightUpLeg  -10.6777 4.92527 -8.95469
RightLeg  60.3449 4.74926 8.50393
RightFoot  -1.04096 -1.19529 13.1152
RightToes  -1.16417e-010 0 -3.6325e-017
Spine  -0.466476 0.590768 -7.03474
Spine1  15.9557 1.21399 -4.86539
HEad  -20.6385 4.36621 -5.60968
LeftShoulder1  -0.383945 4.62365 -27.7332
LeftArm  -2.00785 -3.19233 -48.5193
LeftForeArm  35.5918 -11.1121 -7.90396
LeftHand  -0.17164 9.6053 -3.1207
RightShoulder  -1.02127 -6.41341 28.5243
RightArm  19.7945 -2.16446 50.8533
RightForeArm  18.3249 12.4558 7.29985
RightHand  0.0179296 4.25661 -0.0828088
LeftUpLeg  -6.12163 4.38886 -10.0634
LeftLeg  18.3857 13.9582 2.84366
LeftFoot  -9.39662 -0.0755736 7.84152
LeftToes  3.13772e-010 -3.14513e-011 3.96022e-013
102
root  73.4063 38.2087 -0.511498 -132.758 -83.9079 128.163
RightUpLeg  -14.0143 5.65242 -8.24981
RightLeg  59.245 3.81256 6.45845
RightFoot  -1.77961 -0.933848 10.987
RightToes  -1.16417e-010 0 -3.6325e-017
Spine  4.29551 -0.134125 -8.64558
Spine1  8.67597 -0.910492 -1.28699
HEad  -18.2807 4.81137 -5.05959
LeftShoulder1  -0.643157 5.20625 -31.7391
LeftArm  3.21525 -4.68653 -44.7975
LeftForeArm  30.9885 -13.2864 -8.07834
LeftHand  -0.122196 8.70409 -2.42684
RightShoulder  -0.853597 -5.96504 28.0622
RightArm  20.894 -5.76114 48.2367
RightForeArm  17.0708 13.9236 6.75661
RightHand  0.0629381 5.16115 0.387754
LeftUpLeg  -4.03539 4.47228 -9.51031
LeftLeg  17.1073 13.0827 2.41867
LeftFoot  -10.6692 0.0139236 8.49241
LeftToes  3.13772e-010 -3.14513e-011 3.96022e-013
103
root  72.6109 38.2924 -0.442426 -131.347 -84.7368 126.307
RightUpLeg  -16.2902 6.80006 -7.78182
RightLeg  55.2404 3.4576 4.95312
RightFoot  -2.68385 -0.757368 9.74541
RightToes  -1.16417e-010 0 -3.6325e-017
Spine  6.80171 -0.369738 -8.81493
Spine1  5.59149 -1.41588 -0.513113
HEad  -16.9177 3.15445 -4.14708
LeftShoulder1  -0.740002 5.47797 -31.3619
LeftArm  5.27359 -6.87728 -45.8114
LeftForeArm  28.6517 -14.7504 -7.55019
LeftHand  -0.0679843 8.1483 -0.987315
RightShoulder  -1.00447 -6.32789 29.0274
RightArm  21.6813 -7.09049 46.3165
RightForeArm  16.2291 14.4887 6.56629
RightHand  0.0196366 3.59597 0.00477143
LeftUpLeg  -1.97105 4.85989 -8.92133
LeftLeg  16.825 11.8531 2.07308
LeftFoot  -11.3463 0.0680155 8.29378
LeftToes  3.13772e-010 -3.14513e-011 3.96022e-013
104
root  71.7965 38.3612 -0.368615 -128.892 -85.4862 123.484
RightUpLeg  -17.8053 7.78196 -7.38468
RightLeg  48.8137 3.47089 3.9212
RightFoot  -3.45022 -0.675387 9.43499
RightToes  -1.16417e-010 0 -3.6325e-017
Spine  5.62898 -0.687205 -8.78896
Spine1  7.834 -1.7315 0.151304
HEad  -17.9678 1.35304 -2.80621
LeftShoulder1  -0.791997 5.6953 -29.9469
LeftArm  6.6135 -10.7057 -48.4747
LeftForeArm  26.6884 -15.6305 -7.12737
LeftHand  -0.0457565 8.72452 0.0795597
RightShoulder  -0.969737 -6.25267 28.7144
RightArm  20.1453 -6.86629 46.7032
RightForeArm  16.1235 13.7912 6.67226
RightHand  -0.0651305 3.74504 -1.12314
LeftUpLeg  0.0646686 5.14146 -8.46782
LeftLeg  16.4439 10.9039 1.9488
LeftFoot  -12.1416 0.126692 7.57777
LeftToes  3.13772e-010 -3.14513e-011 3.96022e-013
105
root  70.9879 38.3621 -0.289688 -120.75 -86.3011 115.221
RightUpLeg  -18.768 8.08578 -7.13266
RightLeg  40.6071 3.80958 3.2079
RightFoot  -3.51503 -0.668254 9.41399
RightToes  -1.16417e-010 0 -3.6325e-017
Spine  7.95327 -0.894548 -8.87062
Spine1  4.60972 -2.19346 1.34291
HEad  -16.7793 2.62233 -2.02512
LeftShoulder1  -0.775448 5.61187 -30.599
LeftArm  12.2635 -11.9871 -48.2876
LeftForeArm  21.9323 -18.4362 -5.99345
LeftHand  -0.0467773 9.16728 0.0696404
RightShoulder  -1.02749 -6.39924 28.9231
RightArm  20.2584 -8.17728 45.4852
RightForeArm  16.5649 13.7622 6.63415
RightHand  0.0185574 4.66167 -0.0762859
LeftUpLeg  1.83184 5.43141 -8.09254
LeftLeg  15.9741 9.97289 1.73184
LeftFoot  -13.0984 0.196257 7.64671
LeftToes  3.13772e-010 -3.14513e-011 3.96022e-013
106
root  70.1458 38.3702 -0.206762 -115.307 -86.6662 109.688
RightUpLeg  -19.207 7.86214 -6.88396
RightLeg  31.1891 4.72846 2.88096
RightFoot  -3.01571 -0.632882 8.39329
RightToes  -1.16417e-010 0 -3.6325e-017
Spine  7.57929 -0.818018 -8.60189
Spine1  5.22622 -2.10476 2.06776
HEad  -17.3591 4.39889 -0.982121
LeftShoulder1  -0.572982 5.08021 -30.2059
LeftArm  15.9269 -13.9217 -49.5865
LeftForeArm  19.1749 -20.5945 -4.93396
LeftHand  -0.0245082 9.57722 0.742262
RightShoulder  -0.826742 -5.87878 28.2199
RightArm  18.2904 -9.07055 45.987
RightForeArm  18.0446 13.1553 6.50727
RightHand  0.0183517 3.0674 0.023849
LeftUpLeg  3.86679 5.75049 -7.7647
LeftLeg  15.0363 9.25637 1.27194
LeftFoot  -13.968 0.257218 7.54151
LeftToes  3.13772e-010 -3.14513e-011 3.96022e-013
107
root  69.2642 38.3185 -0.120908 -107.663 -86.6925 102.269
RightUpLeg  -19.2565 6.14783 -6.51467
RightLeg  20.9462 6.0066 2.21283
RightFoot  -3.1732 -0.651308 8.79533
RightToes  -1.16417e-010 0 -3.6325e-017
Spine  7.67352 -0.893451 -8.24977
Spine1  4.73447 -2.08795 2.38328
HEad  -17.3124 3.22062 -1.55298
LeftShoulder1  -0.504106 4.88691 -30.2854
LeftArm  18.0476 -14.9024 -49.9308
LeftForeArm  18.0278 -22.7688 -4.18619
LeftHand  -0.0317371 8.10426 0.445229
RightShoulder  -0.826533 -5.86648 28.3742
RightArm  17.2714 -9.20237 45.8602
RightForeArm  19.2385 11.9114 6.7787
RightHand  0.0203677 3.2856 0.0370386
LeftUpLeg  5.49653 5.70552 -7.94901
LeftLeg  14.2826 8.98812 1.14383
LeftFoot  -14.9092 0.320239 7.38971
LeftToes  3.13772e-010 -3.14513e-011 3.96022e-013
108
root  68.3429 38.2769 -0.0235152 -98.4964 -86.6174 93.4719
RightUpLeg  -18.6461 0.781511 -5.0112
RightLeg  10.1169 9.15798 1.2234
RightFoot  -2.78195 -0.746904 9.70064
RightToes  -1.16417e-010 0 -3.6325e-017
Spine  7.40113 -0.790602 -8.02437
Spine1  4.8732 -2.01769 3.18053
HEad  -18.2694 0.850487 -1.30675
LeftShoulder1  -0.429795 4.69413 -29.9768
LeftArm  18.5802 -15.369 -50.638
LeftForeArm  18.503 -24.8535 -4.3132
LeftHand  -0.0410647 7.26113 -0.102295
RightShoulder  -1.00741 -6.38413 28.4352
RightArm  17.2064 -9.19759 45.7492
RightForeArm  19.6084 11.4852 6.91394
RightHand  -0.0200537 3.36887 -0.511641
LeftUpLeg  7.21419 5.57184 -8.1584
LeftLeg  13.112 8.69851 0.913322
LeftFoot  -15.6032 0.36175 7.18833
LeftToes  3.13772e-010 -3.14513e-011 3.96022e-013
109
root  67.3321 38.1679 0.0495595 -86.7596 -86.3274 82.044
RightUpLeg  -17.8557 -5.77118 -3.17465
RightLeg  0.758577 11.0712 0.386845
RightFoot  -3.0396 -0.837383 11.2577
RightToes  -1.16417e-010 0 -3.6325e-017
Spine  6.17753 -1.07903 -7.40533
Spine1  6.39884 -2.19823 3.07263
HEad  -19.6933 -1.04338 -0.980275
LeftShoulder1  -0.523438 4.94579 -30.1239
LeftArm  19.7276 -15.9877 -50.6536
LeftForeArm  19.0403 -27.0059 -4.78637
LeftHand  -0.0317105 7.94886 0.495452
RightShoulder  -0.927202 -6.15877 28.3168
RightArm  16.2153 -9.1191 46.2062
RightForeArm  20.7571 11.0347 6.83519
RightHand  0.0502662 3.65211 0.394115
LeftUpLeg  9.12442 5.70468 -8.21588
LeftLeg  12.1304 7.75711 0.401563
LeftFoot  -16.6632 0.429721 7.07373
LeftToes  3.13772e-010 -3.14513e-011 3.96022e-013
110
root  66.2663 37.9805 0.0914511 -80.6269 -85.7853 76.1685
RightUpLeg  -17.4954 -6.02452 -3.29023
RightLeg  -4.55321 5.82716 0.619116
RightFoot  -3.88206 -0.832004 12.2862
RightToes  -1.16417e-010 0 -3.6325e-017
Spine  4.56536 -0.958031 -7.2831
Spine1  8.34096 -2.1054 3.49736
HEad  -19.8493 -2.91657 -2.18455
LeftShoulder1  -0.540844 4.95572 -31.06
LeftArm  21.6603 -16.8331 -50.3745
LeftForeArm  18.9139 -28.0958 -5.04028
LeftHand  -0.0390182 7.48362 0.102166
RightShoulder  -0.770134 -5.73441 27.8606
RightArm  14.9923 -9.1676 46.6208
RightForeArm  20.6049 10.8265 6.62543
RightHand  0.0477719 4.1229 0.29658
LeftUpLeg  10.8049 5.75481 -8.52968
LeftLeg  11.9549 7.05865 0.271292
LeftFoot  -18.0186 0.512051 6.90919
LeftToes  3.13772e-010 -3.14513e-011 3.96022e-013
111
root  65.1593 37.7642 0.101446 -78.9027 -85.3895 74.6453
RightUpLeg  -18.3624 -5.93047 -3.08301
RightLeg  -2.87873 1.60596 1.14286
RightFoot  -3.62091 -0.697345 9.88075
RightToes  -1.16417e-010 0 -3.6325e-017
Spine  4.59106 -0.902935 -6.29294
Spine1  8.02952 -1.74675 2.38455
HEad  -19.5212 -0.663042 -2.58416
LeftShoulder1  -0.408693 4.63811 -29.9168
LeftArm  21.8741 -15.3176 -50.7707
LeftForeArm  19.6004 -28.6188 -5.1226
LeftHand  -0.0491507 7.67808 -0.34391
RightShoulder  -0.973037 -6.21273 29.3747
RightArm  15.0744 -8.13006 45.8978
RightForeArm  21.2164 9.87044 6.89979
RightHand  0.0940824 4.60316 0.790716
LeftUpLeg  12.5463 5.99598 -8.62885
LeftLeg  11.9196 6.47416 0.173812
LeftFoot  -19.3275 0.547104 6.19059
LeftToes  3.13772e-010 -3.14513e-011 3.96022e-013
112
root  63.9609 37.4981 0.129794 -81.0556 -85.1455 76.9974
RightUpLeg  -19.7153 -6.2952 -2.69058
RightLeg  2.50563 -1.47794 1.8159
RightFoot  -2.17538 -0.72196 8.85456
RightToes  -1.16417e-010 0 -3.6325e-017
Spine  4.94159 -0.755557 -5.19896
Spine1  7.28553 -1.39596 1.61525
HEad  -21.197 2.86166 -3.43318
LeftShoulder1  -0.456469 4.76617 -29.9786
LeftArm  22.9259 -13.6567 -50.6822
LeftForeArm  19.3387 -28.4063 -5.08771
LeftHand  -0.0580829 7.64999 -0.842168
RightShoulder  -1.01379 -6.31191 29.5459
RightArm  15.0241 -7.4999 45.9458
RightForeArm  21.8431 9.22068 7.07171
RightHand  0.0309104 3.53047 0.180209
LeftUpLeg  13.9034 6.28174 -8.80468
LeftLeg  13.003 5.97246 0.444489
LeftFoot  -20.913 0.54318 4.96737
LeftToes  3.13772e-010 -3.14513e-011 3.96022e-013
